<svg xmlns="http://www.w3.org/2000/svg" xmlns:xlink="http://www.w3.org/1999/xlink" width="500" zoomAndPan="magnify" viewBox="0 0 375 374.999991" height="500" preserveAspectRatio="xMidYMid meet" version="1.0"><defs><clipPath id="id1"><path d="M 72.25 10.542969 L 212 10.542969 L 212 355 L 72.25 355 Z M 72.25 10.542969 " clip-rule="nonzero"/></clipPath><clipPath id="id2"><path d="M 168 47 L 301.75 47 L 301.75 362.832031 L 168 362.832031 Z M 168 47 " clip-rule="nonzero"/></clipPath></defs><rect x="-37.5" width="450" fill="#ffffff" y="-37.499999" height="449.999989" fill-opacity="1"/><rect x="-37.5" width="450" fill="#000000" y="-37.499999" height="449.999989" fill-opacity="1"/><g clip-path="url(#id1)"><path fill="#004aad" d="M 211.585938 354.5625 C 128.597656 285.9375 113.230469 214.238281 167.53125 138.441406 C 174.703125 143.5625 179.828125 149.707031 183.925781 157.902344 C 196.21875 130.246094 196.21875 99.519531 185.972656 71.863281 C 174.703125 44.207031 153.1875 21.671875 125.523438 10.40625 C 159.335938 56.5 139.867188 97.46875 114.253906 135.367188 C 89.664062 171.21875 65.078125 195.800781 74.296875 243.941406 C 84.542969 301.300781 144.992188 347.394531 211.585938 354.5625 Z M 211.585938 354.5625 " fill-opacity="1" fill-rule="evenodd"/></g><g clip-path="url(#id2)"><path fill="#03989e" d="M 233.101562 47.28125 C 254.617188 108.738281 238.226562 178.386719 191.097656 224.480469 L 176.753906 203.996094 C 154.210938 264.425781 179.828125 333.054688 238.226562 362.757812 C 164.457031 263.402344 277.160156 229.601562 298.675781 158.925781 C 309.945312 114.882812 287.40625 76.984375 233.101562 47.28125 Z M 233.101562 47.28125 " fill-opacity="1" fill-rule="evenodd"/></g></svg>